<svg xmlns="http://www.w3.org/2000/svg" xmlns:xlink="http://www.w3.org/1999/xlink" width="500" zoomAndPan="magnify" viewBox="0 0 375 374.999991" height="500" preserveAspectRatio="xMidYMid meet" version="1.0"><defs><clipPath id="7247a6374e"><path d="M 16.070312 38 L 356 38 L 356 337.5 L 16.070312 337.5 Z M 16.070312 38 " clip-rule="nonzero"/></clipPath></defs><path fill="#100f0d" d="M 95.53125 296.421875 C 95.53125 299.953125 92.660156 302.824219 89.132812 302.824219 L 61.671875 302.824219 C 58.140625 302.824219 55.269531 299.953125 55.269531 296.421875 L 55.269531 274.78125 C 55.269531 271.25 58.140625 268.378906 61.671875 268.378906 L 89.132812 268.378906 C 92.660156 268.378906 95.53125 271.25 95.53125 274.78125 Z M 89.132812 262.039062 L 61.671875 262.039062 C 54.644531 262.039062 48.929688 267.753906 48.929688 274.78125 L 48.929688 296.421875 C 48.929688 303.449219 54.644531 309.164062 61.671875 309.164062 L 89.132812 309.164062 C 96.15625 309.164062 101.871094 303.449219 101.871094 296.421875 L 101.871094 274.78125 C 101.871094 267.753906 96.15625 262.039062 89.132812 262.039062 " fill-opacity="1" fill-rule="nonzero"/><path fill="#100f0d" d="M 253.476562 266.199219 L 135.316406 266.199219 C 133.5625 266.199219 132.144531 267.617188 132.144531 269.367188 C 132.144531 271.121094 133.5625 272.539062 135.316406 272.539062 L 253.476562 272.539062 C 255.230469 272.539062 256.648438 271.121094 256.648438 269.367188 C 256.648438 267.617188 255.230469 266.199219 253.476562 266.199219 " fill-opacity="1" fill-rule="nonzero"/><path fill="#100f0d" d="M 230.203125 298.664062 L 181.191406 298.664062 C 179.4375 298.664062 178.019531 300.082031 178.019531 301.832031 C 178.019531 303.582031 179.4375 305.003906 181.191406 305.003906 L 230.203125 305.003906 C 231.953125 305.003906 233.375 303.582031 233.375 301.832031 C 233.375 300.082031 231.953125 298.664062 230.203125 298.664062 " fill-opacity="1" fill-rule="nonzero"/><path fill="#100f0d" d="M 161.941406 298.664062 L 135.316406 298.664062 C 133.5625 298.664062 132.144531 300.082031 132.144531 301.832031 C 132.144531 303.582031 133.5625 305.003906 135.316406 305.003906 L 161.941406 305.003906 C 163.695312 305.003906 165.113281 303.582031 165.113281 301.832031 C 165.113281 300.082031 163.695312 298.664062 161.941406 298.664062 " fill-opacity="1" fill-rule="nonzero"/><g clip-path="url(#7247a6374e)"><path fill="#100f0d" d="M 289.515625 206.585938 L 324.519531 228.402344 L 289.515625 282.429688 Z M 283.179688 310.367188 C 283.179688 321.8125 273.867188 331.125 262.421875 331.125 L 43.15625 331.125 C 31.710938 331.125 22.398438 321.8125 22.398438 310.367188 L 22.398438 175.933594 C 22.398438 164.484375 31.710938 155.167969 43.15625 155.167969 L 59.539062 155.167969 C 59.539062 155.167969 59.542969 155.167969 59.546875 155.167969 L 262.421875 155.167969 C 273.867188 155.167969 283.179688 164.484375 283.179688 175.933594 Z M 105.710938 86.488281 L 201.878906 148.828125 L 65.316406 148.828125 Z M 212.996094 148.828125 C 212.761719 148.457031 212.449219 148.125 212.054688 147.871094 L 109.15625 81.167969 L 122.90625 59.945312 L 260.023438 148.828125 Z M 327.96875 223.082031 L 289.515625 199.113281 L 289.515625 175.933594 C 289.515625 172.785156 288.972656 169.765625 287.980469 166.957031 L 341.75 201.8125 Z M 155.253906 48.183594 L 339.265625 167.464844 C 348.867188 173.691406 351.621094 186.570312 345.394531 196.179688 L 345.195312 196.488281 L 126.351562 54.625 L 126.554688 54.316406 C 132.777344 44.710938 145.65625 41.957031 155.253906 48.183594 Z M 342.714844 162.144531 L 158.703125 42.859375 C 152.632812 38.925781 145.394531 37.589844 138.3125 39.101562 C 131.234375 40.613281 125.167969 44.789062 121.234375 50.863281 L 119.308594 53.832031 C 119.308594 53.832031 119.308594 53.832031 119.308594 53.835938 L 57.765625 148.828125 L 43.15625 148.828125 C 28.21875 148.828125 16.0625 160.988281 16.0625 175.933594 L 16.0625 310.367188 C 16.0625 325.308594 28.21875 337.464844 43.15625 337.464844 L 262.421875 337.464844 C 277.363281 337.464844 289.515625 325.308594 289.515625 310.367188 L 289.515625 294.085938 L 350.714844 199.628906 C 358.835938 187.085938 355.25 170.273438 342.714844 162.144531 " fill-opacity="1" fill-rule="nonzero"/></g></svg>