<svg xmlns="http://www.w3.org/2000/svg" xmlns:xlink="http://www.w3.org/1999/xlink" width="500" zoomAndPan="magnify" viewBox="0 0 375 374.999991" height="500" preserveAspectRatio="xMidYMid meet" version="1.0"><defs><clipPath id="60c5d5c81e"><path d="M 41 11 L 334.625 11 L 334.625 375 L 41 375 Z M 41 11 " clip-rule="nonzero"/></clipPath></defs><g clip-path="url(#60c5d5c81e)"><path fill="#000000" d="M 313.746094 112.226562 L 313.746094 370.980469 L 333.0625 370.980469 C 334.152344 370.980469 334.625 374.980469 333.0625 374.980469 L 42.535156 374.980469 C 40.625 374.980469 40.625 370.980469 42.535156 370.980469 L 61.421875 370.980469 L 61.421875 112.226562 L 52.757812 112.226562 C 51.65625 112.226562 51.292969 110.683594 51.210938 109.789062 C 50.863281 106.585938 50.777344 97.777344 51.195312 94.671875 C 51.390625 93.222656 51.726562 92.871094 53.191406 92.675781 C 56.484375 92.246094 70.542969 93.414062 72.089844 92.480469 C 85.285156 58.257812 112.21875 30.59375 146.917969 18.125 C 197.324219 0.0195312 252.097656 17.550781 284.398438 59.203125 C 292.335938 69.433594 298.054688 80.582031 303.074219 92.480469 C 305.992188 93.386719 321.988281 91.839844 323.300781 93.136719 C 324.609375 94.433594 323.898438 94.503906 323.96875 95.144531 C 324.179688 97.011719 324.179688 109.914062 323.730469 110.90625 C 323.285156 111.894531 322.503906 112.242188 322.40625 112.242188 L 313.746094 112.242188 Z M 298.195312 92.707031 C 296.617188 86.921875 293.660156 81.195312 290.71875 75.984375 C 272.671875 44.027344 239.515625 20.757812 202.847656 15.976562 C 147.921875 8.84375 95.925781 41.703125 76.527344 92.707031 L 96.066406 92.707031 C 118.800781 38.398438 183.710938 15.28125 235.847656 44.253906 C 255.261719 55.039062 270.398438 72.457031 279.308594 92.707031 Z M 274.652344 92.707031 C 258.652344 55.539062 218.707031 31.722656 178.09375 35.945312 C 144.535156 39.429688 113.585938 61.683594 100.515625 92.707031 L 109.175781 92.707031 C 109.722656 92.707031 110.222656 94.542969 110.292969 95.144531 C 110.683594 98.503906 110.601562 105.929688 110.292969 109.371094 C 110.210938 110.332031 110.015625 112.242188 108.71875 112.242188 L 100.5 112.242188 L 100.5 344.363281 C 117.714844 323.222656 125.480469 296.257812 136.988281 271.855469 C 140.769531 263.84375 144.925781 255.941406 149.359375 248.265625 C 146.78125 248.179688 144.269531 248.613281 141.648438 248.433594 C 139.484375 248.277344 131.367188 246.71875 129.847656 245.589844 C 128.328125 244.460938 130.964844 239.902344 130.964844 237.828125 C 123.863281 234.511719 118.046875 229.382812 120.476562 220.730469 C 131.632812 197.707031 141.589844 172.902344 156.558594 152.042969 C 157.574219 150.621094 161.660156 146.3125 162.011719 145.519531 C 162.46875 144.503906 162.359375 142.761719 162.804688 141.4375 C 164.464844 136.53125 168.816406 132.8125 173.78125 131.542969 C 175.691406 131.054688 181.507812 130.273438 183.292969 130.441406 C 186.238281 130.707031 189.402344 135.738281 191.550781 137.535156 C 190.726562 134.914062 191.550781 131.460938 190.546875 128.992188 C 189.933594 127.472656 187.675781 126.609375 187.214844 124.339844 C 186 118.386719 191.398438 120.660156 195.21875 120.117188 C 201.160156 119.25 209.570312 112.6875 215.511719 117.382812 C 218.484375 119.738281 221.148438 122.289062 222.417969 126.023438 C 223.601562 129.523438 223.714844 133.199219 223.546875 136.878906 C 223.433594 139.179688 222.222656 142.300781 223.183594 144.363281 C 224.914062 148.097656 227.089844 147.570312 230.074219 149.019531 C 254.539062 160.820312 250.046875 175.757812 252.433594 199.476562 C 254.191406 216.953125 256.074219 234.425781 257.996094 251.875 C 257.71875 255.066406 252.472656 253.28125 251.59375 254.355469 C 251.496094 254.480469 251.164062 257.085938 251.09375 257.628906 C 247.007812 289.609375 248.441406 322.722656 246.628906 354.800781 C 246.421875 358.535156 246.238281 360.527344 245.738281 364.109375 C 245.445312 366.183594 245.988281 368.859375 245.765625 371.007812 L 274.636719 371.007812 L 274.636719 112.226562 L 266.421875 112.226562 C 266.296875 112.226562 265.207031 111.546875 265.082031 111.335938 C 264.621094 110.570312 264.664062 94.503906 265.082031 93.597656 C 265.5 92.691406 265.890625 92.707031 265.960938 92.707031 Z M 106.289062 96.691406 L 55.199219 96.691406 L 55.199219 107.558594 C 55.199219 107.601562 55.8125 108.230469 55.871094 108.230469 L 106.289062 108.230469 Z M 319.964844 96.691406 L 268.875 96.691406 L 268.875 108.230469 L 319.296875 108.230469 C 319.339844 108.230469 319.964844 107.617188 319.964844 107.558594 Z M 96.511719 112.226562 L 65.421875 112.226562 L 65.421875 123.765625 L 96.511719 123.765625 Z M 309.742188 112.226562 L 278.652344 112.226562 L 278.652344 123.765625 L 309.742188 123.765625 Z M 96.511719 127.765625 L 65.421875 127.765625 L 65.421875 356.347656 L 89.636719 356.347656 C 90.125 356.347656 96.527344 349.949219 96.527344 349.464844 L 96.527344 127.765625 Z M 309.742188 127.765625 L 278.652344 127.765625 L 278.652344 356.347656 L 309.742188 356.347656 Z M 203.503906 129.621094 C 202.304688 128.867188 196.53125 130.59375 194.6875 129.980469 C 194.398438 130.273438 195.46875 137.035156 195.582031 138.203125 C 196.015625 143.09375 195.402344 141.8125 197.3125 146.246094 C 200.378906 153.378906 198.945312 156.375 208.457031 152.835938 C 210.910156 151.917969 213.699219 149.726562 214.144531 146.96875 C 214.425781 145.226562 213.449219 143.707031 213.867188 142.300781 C 214.285156 140.894531 215.875 140.878906 216.027344 138.648438 C 216.195312 136.308594 214.046875 133.96875 212.011719 135.554688 C 210.882812 136.433594 210.953125 138.273438 208.902344 137.324219 C 206.574219 136.238281 203.894531 129.882812 203.492188 129.632812 Z M 186.683594 137.535156 L 185.804688 137.757812 C 186.613281 140.894531 183.320312 148.613281 180.464844 149.757812 C 179.667969 150.078125 176.460938 148.890625 176.011719 151.984375 C 175.398438 156.195312 180.910156 155.332031 181.507812 156.722656 C 182.988281 160.179688 181.898438 167.285156 180.042969 170.601562 L 183.363281 172.148438 C 184.339844 169.433594 184.296875 161.976562 187.03125 160.738281 C 189.515625 159.609375 194.4375 159.832031 194.6875 156.402344 C 194.800781 154.785156 194.0625 148.363281 193.460938 146.96875 C 192.414062 144.503906 187.546875 140.699219 186.683594 137.535156 Z M 212.027344 157.058594 C 212.683594 157.238281 212.765625 156.878906 213.140625 156.625 C 215.597656 154.953125 218.75 150.757812 221.300781 148.78125 C 220.546875 147.023438 219.503906 145.199219 217.550781 144.640625 C 216.449219 144.320312 216.992188 146.925781 216.796875 147.847656 C 216.433594 149.546875 215.386719 151.121094 214.242188 152.402344 C 212.472656 154.367188 210.199219 154.410156 212.027344 157.058594 Z M 133.824219 243.164062 C 136.390625 243.890625 149.386719 245.8125 150.195312 243.332031 C 153.070312 219.988281 156.933594 196.691406 159.5 173.363281 C 154.199219 168.164062 161.800781 163.328125 162.597656 158.074219 C 162.972656 155.609375 162.121094 153.699219 162.261719 151.304688 C 145.777344 172.875 135.230469 198.667969 123.808594 223.179688 C 122.761719 228.296875 127.921875 232.335938 132.246094 233.84375 L 138.691406 216.410156 C 140.53125 214.960938 142.511719 215.835938 142.09375 218.332031 C 140.949219 225.230469 135.59375 234.203125 134.03125 241.378906 C 133.90625 241.980469 133.738281 242.550781 133.824219 243.179688 Z M 220.449219 154.84375 L 213.351562 161.28125 C 215.597656 163.664062 215.511719 164.054688 217.257812 161.195312 L 220.449219 154.855469 Z M 207.941406 157.113281 C 207.453125 156.820312 203.308594 158.394531 202.011719 158.382812 C 200.714844 158.367188 199.640625 157.351562 198.246094 157.058594 C 199.585938 162.800781 190.378906 162.882812 189.011719 164.25 C 188.648438 164.609375 187.003906 173.308594 187.214844 174.03125 C 191.148438 180.457031 201.035156 189.039062 201.316406 196.84375 C 201.480469 201.289062 197.828125 205.164062 196.585938 209.328125 C 196.152344 210.792969 195.136719 215.027344 195.148438 216.351562 C 195.191406 218.539062 198.121094 216.800781 199.125 216.3125 C 200.183594 215.808594 207.324219 211.808594 207.480469 211.351562 C 207.160156 202.792969 206.25 194.238281 206.640625 185.652344 C 207.003906 177.917969 209.375 168.570312 209.363281 161.265625 C 209.363281 160.292969 208.636719 157.53125 207.925781 157.101562 Z M 212.457031 171.703125 C 212.542969 169.015625 216.15625 166.839844 213.128906 165.058594 C 212.542969 165.042969 212.097656 169.308594 212.027344 170.15625 C 211.984375 170.644531 211.707031 171.816406 212.457031 171.703125 Z M 190.238281 184.566406 C 188.511719 182.867188 185.722656 177.515625 184.003906 176.386719 C 182.289062 175.257812 177.507812 173.960938 177.144531 173.960938 C 176.488281 173.960938 175.105469 174.785156 174.285156 175.0625 C 172.527344 175.660156 171.789062 174.476562 171.605469 177.472656 C 178.609375 174.144531 184.382812 179.84375 184.492188 186.796875 L 190.269531 184.566406 Z M 168.035156 175.703125 L 163.601562 174.8125 L 154.714844 239.164062 L 168.914062 222.527344 C 165.652344 220.9375 165.566406 217.425781 165.34375 214.109375 C 164.800781 205.59375 165.230469 191.074219 166.304688 182.628906 C 166.597656 180.289062 167.101562 177.878906 168.023438 175.703125 Z M 224.355469 204.882812 C 225.164062 203.769531 225.21875 192.078125 225.347656 189.679688 C 225.511719 186.585938 226.128906 183.003906 226.253906 179.925781 C 226.324219 178.253906 226.351562 173.667969 224.46875 176.804688 L 223.042969 202.90625 C 222.570312 204.492188 215.316406 206.878906 213.628906 208.144531 C 212.640625 208.898438 212.570312 209.511719 213.574219 210.292969 L 224.355469 204.871094 Z M 246.210938 179.242188 C 245.292969 178.351562 244.59375 179.96875 244.480469 180.832031 C 243.226562 190.753906 242.851562 202.683594 240.84375 212.269531 C 239.964844 216.449219 236.292969 217.132812 232.753906 218.832031 C 225.820312 222.136719 218.59375 224.980469 211.59375 228.101562 L 212.25 229.855469 L 238.625 218.039062 C 243.242188 215.90625 242.890625 210.054688 243.503906 205.609375 C 244.496094 198.5 245.738281 190.097656 246.226562 183.019531 C 246.265625 182.394531 246.363281 179.382812 246.226562 179.242188 Z M 188.789062 219.308594 C 187.089844 218.191406 177.769531 213.96875 177.421875 212.660156 C 177.898438 205.289062 180.058594 197.402344 180.464844 190.113281 C 180.628906 187.101562 180.519531 181.195312 176.667969 180.59375 C 172.554688 179.953125 170.183594 183.285156 169.820312 187.003906 C 169.582031 189.347656 169.445312 192.566406 169.347656 194.960938 C 169.039062 202.625 169.375 210.515625 169.667969 218.179688 C 170.042969 219.097656 183.558594 224.867188 184.703125 224.769531 C 185.441406 224.699219 190.6875 220.601562 188.804688 219.292969 Z M 191.578125 216.089844 C 191.734375 212.410156 192.597656 208.382812 194.019531 204.996094 C 195.972656 200.371094 198.875 199.171875 196.417969 193.277344 C 196.167969 192.675781 193.894531 188.84375 193.574219 188.566406 C 192.109375 187.296875 185.972656 190.542969 184.117188 191.3125 L 181.535156 210.554688 C 182.332031 211.601562 191.175781 216.507812 191.578125 216.074219 Z M 193.363281 220.519531 C 193.894531 223.988281 189.738281 224.980469 188.035156 227.402344 C 190.128906 229.632812 191.539062 231.234375 194.882812 230.707031 C 195.988281 230.523438 200.074219 228.269531 199.960938 227.042969 C 199.851562 225.816406 196.992188 221.578125 196.726562 221.382812 C 195.917969 220.8125 194.355469 220.855469 193.363281 220.535156 Z M 75.632812 370.992188 L 212.011719 370.992188 C 212.082031 370.992188 212 370.199219 212.261719 369.726562 C 213.644531 367.3125 215.445312 366.925781 217.8125 365.835938 C 210.101562 322.164062 204.0625 278.03125 193.8125 234.929688 C 189.78125 234.648438 186.808594 232.113281 184.589844 228.9375 C 181.925781 228.742188 175.105469 224.476562 173.125 224.53125 C 171.46875 224.574219 164.339844 233.035156 162.972656 234.777344 C 131.589844 274.546875 126.484375 335.765625 84.210938 365.570312 L 75.632812 370.980469 Z M 208.457031 230.734375 C 205.777344 231.265625 203.8125 234.359375 202.011719 230.734375 C 201.0625 232.671875 197.6875 232.65625 197.773438 234.453125 C 207.785156 277.460938 213.910156 321.285156 221.550781 364.75 L 226.601562 362.03125 L 214.648438 256.488281 C 212.652344 256.054688 210.492188 257.585938 209.90625 255.246094 C 208.804688 250.800781 208.734375 241.703125 208.457031 236.710938 C 208.34375 234.734375 208.523438 232.714844 208.457031 230.734375 Z M 84.070312 360.332031 L 65.410156 360.332031 L 65.410156 370.546875 C 72.144531 368.625 78.9375 365.125 84.070312 360.332031 Z M 309.742188 360.332031 L 278.652344 360.332031 L 278.652344 370.980469 L 309.742188 370.980469 Z M 309.742188 360.332031 " fill-opacity="1" fill-rule="nonzero"/></g></svg>